<?xml version="1.0" standalone="no"?>
<!DOCTYPE svg PUBLIC "-//W3C//DTD SVG 20010904//EN"
 "http://www.w3.org/TR/2001/REC-SVG-20010904/DTD/svg10.dtd">
<svg version="1.0" xmlns="http://www.w3.org/2000/svg"
 width="203.000000pt" height="229.000000pt" viewBox="0 0 203.000000 229.000000"
 preserveAspectRatio="xMidYMid meet">
<metadata>
Created by potrace 1.10, written by Peter Selinger 2001-2011
</metadata>
<g transform="translate(0.000000,229.000000) scale(0.100000,-0.100000)"
fill="#000000" stroke="none">
<path d="M875 2044 c-159 -35 -267 -96 -390 -219 -100 -99 -154 -189 -197
-325 -20 -65 -23 -95 -23 -225 1 -167 17 -236 76 -321 42 -62 121 -99 195 -91
31 3 67 13 81 22 14 10 23 13 21 8 -36 -73 -42 -94 -42 -158 -1 -57 4 -80 24
-117 14 -26 110 -134 218 -246 l193 -200 147 151 c81 83 212 218 291 299 172
177 212 227 262 334 55 117 73 197 72 334 0 139 -23 234 -83 349 -99 189 -244
312 -450 381 -117 40 -281 50 -395 24z m280 -296 c105 -26 234 -127 288 -225
54 -100 71 -234 43 -338 -35 -132 -138 -256 -263 -316 -130 -63 -263 -39 -318
56 -58 102 -44 158 73 277 47 49 88 88 91 88 3 0 23 -37 44 -82 37 -81 38 -82
56 -63 18 19 18 23 1 120 l-17 100 50 51 c54 57 59 87 16 92 -21 2 -35 -7 -67
-44 l-40 -47 -107 17 c-81 13 -111 14 -121 5 -25 -20 -16 -29 67 -66 l80 -36
-83 -85 c-91 -93 -125 -112 -193 -112 -208 0 -250 265 -74 463 122 137 294
190 474 145z"/>
</g>
</svg>
